# xmcd CD database file
#
# Track frame offsets:
#	150
#	18018
#	33488
#	51931
#	66861
#	80382
#	96356
#	114433
#	131405
#	150905
#	165291
#
# Disc length: 2372 seconds
#
# Revision: 0
# Processed by: cddbd v1.5.2PL0 Copyright (c) Steve Scherf et al.
# Submitted via: CDex 1.70beta3
#
DISCID=7909420b
DTITLE=T字路s - Pit Viper Blues
DYEAR=2019
DGENRE=Blues
TTITLE0=暮らしのなかで
TTITLE1=はじまりの物語
TTITLE2=孤独と自由
TTITLE3=ふりこのように
TTITLE4=春を待ってる
TTITLE5=Eddie
TTITLE6=逃避行
TTITLE7=泪橋
TTITLE8=遠くはなれて
TTITLE9=レモンサワー
TTITLE10=さんぽみち
EXTD=YEAR: 2019
EXTT0=
EXTT1=
EXTT2=
EXTT3=
EXTT4=
EXTT5=
EXTT6=
EXTT7=
EXTT8=
EXTT9=
EXTT10=
PLAYORDER=
